<?xml version="1.0" encoding="UTF-8"?>
<svg xmlns="http://www.w3.org/2000/svg" width="108" height="108" viewBox="0 0 108 108">
  <defs>
    <linearGradient id="cyan" x1="0" y1="0" x2="1" y2="1">
      <stop offset="0" stop-color="#31D8E8"/>
      <stop offset="1" stop-color="#08BBD3"/>
    </linearGradient>
    <linearGradient id="azure" x1="0" y1="0" x2="1" y2="1">
      <stop offset="0" stop-color="#7890FF"/>
      <stop offset="1" stop-color="#4967F2"/>
    </linearGradient>
    <linearGradient id="coral" x1="0" y1="0" x2="1" y2="1">
      <stop offset="0" stop-color="#FF6976"/>
      <stop offset="1" stop-color="#F34257"/>
    </linearGradient>
    <linearGradient id="gold" x1="0" y1="0" x2="1" y2="1">
      <stop offset="0" stop-color="#FFD55A"/>
      <stop offset="1" stop-color="#FFBA32"/>
    </linearGradient>
  </defs>

  <!-- The 108-unit adaptive canvas is inset to Android's centered 72-unit mask region. -->
  <g transform="translate(23.90 22.68) scale(.58)">
    <!-- A modular B assembled from the same geometric cells used by BitShape. -->
    <path fill="url(#cyan)" d="M23 14.5h19v19H23z"/>
    <path fill="url(#azure)" d="M43 14.5h19v19H43z"/>
    <path fill="url(#coral)" d="M63 14.5h1c10.5 0 19 8.5 19 19H63z"/>

    <path fill="url(#gold)" d="M23 34.5h19v19H23z"/>
    <path fill="url(#cyan)" d="M63 34.5h20v1c0 10-8 18-18 18h-2z"/>

    <path fill="url(#azure)" d="M23 54.5h19v19H23z"/>
    <path fill="url(#azure)" d="M43 54.5h19v19H43z"/>
    <path fill="url(#coral)" d="M63 54.5h1c10.5 0 19 8.5 19 19H63z"/>

    <path fill="url(#cyan)" d="M23 74.5h19v19H23z"/>
    <path fill="url(#coral)" d="M43 93.5h19v-19z"/>
    <path fill="url(#gold)" d="M63 74.5h20v1c0 10-8 18-18 18h-2z"/>
  </g>
</svg>
